# File produced by Open Asset Import Library (http://www.assimp.sf.net)
# (assimp v3.1.187496374)

mtllib 0a5826e11695475c9cc3285dcc64f9d4.obj.mtl

# 119 vertex positions
v  -8.62635 10.4531 2.47511
v  -10.0496 9.78549 -18.4941
v  -6.56726 9.48873 -18.721
v  -5.14403 10.1563 2.2482
v  -8.46274 12.4296 2.40107
v  -4.98042 12.1328 2.17417
v  -6.40365 11.4652 -18.795
v  -9.88597 11.7619 -18.5681
v  -11.7457 10.2175 -44.2971
v  -7.3352 11.8548 -15.3333
v  -7.3366 11.8238 -15.3324
v  -7.33801 11.7928 -15.3315
v  -7.33942 11.7618 -15.3305
v  -7.34082 11.7308 -15.3296
v  -7.34223 11.6999 -15.3287
v  -7.34926 11.5449 -15.3241
v  -7.35067 11.514 -15.3232
v  -7.36474 11.2041 -15.314
v  -7.36614 11.1732 -15.3131
v  -7.36755 11.1422 -15.3122
v  -7.36896 11.1112 -15.3112
v  -7.37458 10.9873 -15.3076
v  -7.37599 10.9563 -15.3067
v  -7.3774 10.9253 -15.3057
v  -7.3788 10.8943 -15.3048
v  -7.38302 10.8014 -15.3021
v  -7.38443 10.7704 -15.3011
v  -7.38584 10.7394 -15.3002
v  -7.38724 10.7084 -15.2993
v  -7.38865 10.6774 -15.2984
v  -7.39568 10.5225 -15.2938
v  -7.39709 10.4916 -15.2929
v  -7.3999 10.4296 -15.291
v  -7.40131 10.3986 -15.2901
v  -7.40553 10.3057 -15.2874
v  -7.40694 10.2747 -15.2864
v  -7.41678 10.0578 -15.28
v  -7.41819 10.0268 -15.2791
v  -7.34786 11.5759 -15.325
v  -7.35208 11.483 -15.3223
v  -7.35348 11.452 -15.3214
v  -7.36192 11.2661 -15.3158
v  -7.36333 11.2351 -15.3149
v  -7.37318 11.0182 -15.3085
v  -7.38021 10.8633 -15.3039
v  -7.38162 10.8324 -15.303
v  -7.39428 10.5535 -15.2947
v  -7.3985 10.4606 -15.292
v  -7.40272 10.3676 -15.2892
v  -7.40975 10.2127 -15.2846
v  -7.41116 10.1817 -15.2837
v  -7.41257 10.1508 -15.2828
v  -7.41397 10.1198 -15.2819
v  -7.42101 9.96486 -15.2773
v  -7.42241 9.93388 -15.2763
v  -7.34364 11.6689 -15.3278
v  -7.34504 11.6379 -15.3269
v  -7.3577 11.359 -15.3186
v  -7.35911 11.3281 -15.3177
v  -7.36052 11.2971 -15.3168
v  -7.37036 11.0802 -15.3103
v  -7.37177 11.0492 -15.3094
v  -7.39006 10.6465 -15.2975
v  -7.39146 10.6155 -15.2965
v  -7.39287 10.5845 -15.2956
v  -7.41538 10.0888 -15.2809
v  -7.4196 9.99584 -15.2782
v  -7.42382 9.9029 -15.2754
v  -7.34645 11.6069 -15.3259
v  -7.40413 10.3366 -15.2883
v  -7.40834 10.2437 -15.2855
v  -7.35489 11.421 -15.3204
v  -7.35629 11.39 -15.3195
v  -12.7683 10.4699 -41.0902
v  -11.7402 10.4241 -41.0582
v  -12.4637 12.075 -15.7579
v  -12.5019 11.3173 -15.7358
v  -12.5034 11.2886 -15.7349
v  -12.5042 11.2713 -15.7344
v  -12.5054 11.2491 -15.7338
v  -12.5064 11.2296 -15.7332
v  -12.5074 11.2096 -15.7326
v  -12.5088 11.1809 -15.7318
v  -12.5097 11.1637 -15.7313
v  -12.5108 11.1415 -15.7306
v  -12.5118 11.1219 -15.7301
v  -12.5128 11.102 -15.7295
v  -12.5142 11.0733 -15.7286
v  -12.5151 11.0561 -15.7281
v  -12.5162 11.0339 -15.7275
v  -12.5172 11.0144 -15.7269
v  -12.5182 10.9945 -15.7263
v  -12.5197 10.9658 -15.7255
v  -12.5205 10.9486 -15.725
v  -12.5217 10.9264 -15.7243
v  -12.5226 10.9069 -15.7238
v  -12.5236 10.887 -15.7232
v  -12.5243 10.874 -15.7228
v  -12.5622 10.1236 -15.7009
v  -12.7723 10.4567 -41.0885
v  -12.7667 10.4407 -41.0862
v  -12.7619 10.425 -41.084
v  -11.7521 10.2031 -41.0284
v  -12.7936 10.2476 -41.0606
v  -12.7913 10.2763 -41.0644
v  -12.7891 10.3049 -41.0683
v  -12.7868 10.3335 -41.0721
v  -12.7845 10.362 -41.0759
v  -2.27121 10.8344 25.5582
v  -1.33642 10.78 21.8386
v  -1.32731 11.0665 21.8339
v  -1.93241 11.0778 21.8418
v  -7.1922 12.5543 1.41901
v  -2.20602 12.4494 1.52984
v  -7.2297 10.7147 1.36577
v  -2.19549 11.45 1.50162
v  -2.18662 10.6086 1.47786
v  -2.19716 11.6089 1.5061
v  -1.92925 10.7926 21.8463

# 227 UV coordinates
vt 1 0 0
vt 1 1 0
vt 0 1 0
vt 0 0 0
vt 0.5 1 0
vt 0.0158731 0 0
vt 0.0317461 0 0
vt 0.047619 0 0
vt 0.0634921 0 0
vt 0.0793652 0 0
vt 0.15873 0 0
vt 0.174603 0 0
vt 0.333333 0 0
vt 0.349206 0 0
vt 0.36508 0 0
vt 0.380953 0 0
vt 0.444445 0 0
vt 0.460318 0 0
vt 0.476191 0 0
vt 0.492064 0 0
vt 0.539683 0 0
vt 0.555556 0 0
vt 0.571429 0 0
vt 0.587302 0 0
vt 0.603175 0 0
vt 0.68254 0 0
vt 0.698413 0 0
vt 0.730159 0 0
vt 0.746032 0 0
vt 0.793651 0 0
vt 0.809524 0 0
vt 0.920635 0 0
vt 0.936508 0 0
vt 0.142857 0 0
vt 0.190476 0 0
vt 0.206349 0 0
vt 0.301587 0 0
vt 0.31746 0 0
vt 0.428572 0 0
vt 0.507937 0 0
vt 0.52381 0 0
vt 0.666667 0 0
vt 0.714286 0 0
vt 0.761905 0 0
vt 0.84127 0 0
vt 0.857143 0 0
vt 0.873016 0 0
vt 0.888889 0 0
vt 0.968254 0 0
vt 0.984127 0 0
vt 0.0952382 0 0
vt 0.111111 0 0
vt 0.253968 0 0
vt 0.269841 0 0
vt 0.285714 0 0
vt 0.396825 0 0
vt 0.412699 0 0
vt 0.619048 0 0
vt 0.634921 0 0
vt 0.650794 0 0
vt 0.904762 0 0
vt 0.952381 0 0
vt 1 0 0
vt 0.126984 0 0
vt 0.777778 0 0
vt 0.825397 0 0
vt 0.222222 0 0
vt 0.238095 0 0
vt 0.486203 0.884901 0
vt 0.562691 0.886763 0
vt 0.996269 0 0
vt 1.38013 0 0
vt 0.384141 0.615859 0
vt 0.0158731 1 0
vt 0.047619 1 0
vt 0.0317461 1 0
vt 0.395183 0.615851 0
vt 0.0634921 1 0
vt 0.0793652 1 0
vt 0.406223 0.615843 0
vt 0.0952382 1 0
vt 0.111111 1 0
vt 0.126984 1 0
vt 0.417261 0.615835 0
vt 0.142857 1 0
vt 0.15873 1 0
vt 0.174603 1 0
vt 0.428298 0.615826 0
vt 0.190476 1 0
vt 0.206349 1 0
vt 0.222222 1 0
vt 0.439333 0.615818 0
vt 0.238095 1 0
vt 0.253968 1 0
vt 0.269841 1 0
vt 0.450367 0.61581 0
vt 0.285714 1 0
vt 0.301587 1 0
vt 0.31746 1 0
vt 0.333333 1 0
vt 0.461399 0.615802 0
vt 0.349206 1 0
vt 0.380953 1 0
vt 0.36508 1 0
vt 0.47243 0.615794 0
vt 0.396825 1 0
vt 0.412699 1 0
vt 0.483459 0.615786 0
vt 0.428572 1 0
vt 0.444445 1 0
vt 0.460318 1 0
vt 0.494487 0.615777 0
vt 0.476191 1 0
vt 0.492064 1 0
vt 0.507937 1 0
vt 0.505513 0.615769 0
vt 0.52381 1 0
vt 0.539683 1 0
vt 0.555556 1 0
vt 0.571429 1 0
vt 0.516537 0.615761 0
vt 0.587302 1 0
vt 0.603175 1 0
vt 0.52756 0.615753 0
vt 0.619048 1 0
vt 0.634921 1 0
vt 0.650794 1 0
vt 0.666667 1 0
vt 0.538582 0.615745 0
vt 0.68254 1 0
vt 0.714286 1 0
vt 0.698413 1 0
vt 0.549601 0.615737 0
vt 0.730159 1 0
vt 0.746032 1 0
vt 0.56062 0.615729 0
vt 0.761905 1 0
vt 0.777778 1 0
vt 0.793651 1 0
vt 0.571636 0.615721 0
vt 0.809524 1 0
vt 0.825397 1 0
vt 0.84127 1 0
vt 0.582652 0.615712 0
vt 0.857143 1 0
vt 0.873016 1 0
vt 0.904762 1 0
vt 0.888889 1 0
vt 0.593665 0.615704 0
vt 0.920635 1 0
vt 0.952381 1 0
vt 0.936508 1 0
vt 0.604677 0.615696 0
vt 0.968254 1 0
vt 1 1 0
vt 0.984127 1 0
vt 0.615688 0.615688 0
vt 1 0.615404 0
vt 0.601327 0.884078 0
vt 0.602041 0.884061 0
vt 0.600298 0.884103 0
vt 0.599403 0.884124 0
vt 0.523703 0.885947 0
vt 0.380126 0 0
vt 0.764722 0 0
vt 0 0.616143 0
vt 0.0391665 0.912042 0
vt 0 0.912387 0
vt 0 0.923123 0
vt 0.039139 0.913437 0
vt 0.0391117 0.914829 0
vt 0.0390844 0.916219 0
vt 0.0390572 0.917606 0
vt 0.03903 0.918991 0
vt 0.0390029 0.920373 0
vt 0.0389758 0.921752 0
vt 0.0383744 0.922959 0
vt 1 0.923123 0
vt 1 0.912387 0
vt 0.612199 0.744114 0
vt 0.610984 0.780067 0
vt 0.610963 0.780711 0
vt 0.610933 0.781588 0
vt 0.610905 0.782426 0
vt 0.610868 0.783521 0
vt 0.610847 0.784141 0
vt 0.610789 0.785857 0
vt 0.610759 0.786735 0
vt 0.610731 0.787574 0
vt 0.610694 0.788669 0
vt 0.610673 0.78929 0
vt 0.610615 0.791007 0
vt 0.610585 0.791886 0
vt 0.610557 0.792725 0
vt 0.61052 0.793821 0
vt 0.610499 0.794442 0
vt 0.610441 0.796161 0
vt 0.610411 0.79704 0
vt 0.610383 0.797879 0
vt 0.610346 0.798976 0
vt 0.610325 0.799598 0
vt 0.610267 0.801318 0
vt 0.609043 0.837557 0
vt 0.200221 0.844684 0
vt 0.355033 0.844142 0
vt 0.422071 0.844142 0
vt 0.477149 0.845031 0
vt 0.545767 0 0
vt -1.43012 0 0
vt -0.430119 0 0
vt 0.457048 0.542952 0
vt 0.459417 1 0
vt 0.4566 0.4566 0
vt 0.454233 0 0
vt 0.523694 0.845552 0
vt 0.577658 0.844684 0
vt 0.459417 0 0
vt 0.0746951 0.510334 0
vt 0 0.5111 0
vt 0 0.536876 0
vt 0.0762437 0.536241 0
vt 1 0.536876 0
vt 1 0.5111 0
vt 0.0533718 0.4755 0
vt 0.0550917 0.551584 0
vt 0.0554166 0.565959 0
vt 0.0571349 0.641968 0

# 243 vertex normals
vn -0.0198928 -0.240313 0.00900121
vn -0.0198929 -0.240313 0.00900117
vn -0.0198927 -0.240313 0.00900125
vn 0.0198929 0.240313 -0.00900121
vn 0.019893 0.240313 -0.00900117
vn 0.0198928 0.240313 -0.00900125
vn 0.0676824 0.0317486 0.997202
vn 0.0676825 0.0317484 0.997202
vn 0.0676823 0.0317487 0.997202
vn 0.408806 -0.0348383 -0.0266375
vn 0.408806 -0.0348383 -0.0266375
vn 0.408806 -0.0348384 -0.0266375
vn -0.0676825 -0.0317487 -0.997202
vn -0.0676823 -0.0317486 -0.997202
vn -0.0676826 -0.0317488 -0.997202
vn -0.408806 0.0348384 0.0266375
vn -0.408806 0.0348384 0.0266375
vn -0.408806 0.0348384 0.0266375
vn 0.252669 -0.0155596 -0.137864
vn 0.252668 -0.0155624 -0.137863
vn 0.252669 -0.0155597 -0.137864
vn 0.252669 -0.0155581 -0.137864
vn 0.252669 -0.0155596 -0.137864
vn 0.252668 -0.0155612 -0.137864
vn 0.252669 -0.0155615 -0.137864
vn 0.252669 -0.0155597 -0.137864
vn 0.252669 -0.0155607 -0.137864
vn 0.252669 -0.0155596 -0.137864
vn 0.252668 -0.0155608 -0.137864
vn 0.252669 -0.0155612 -0.137864
vn 0.252669 -0.0155566 -0.137865
vn 0.252669 -0.0155578 -0.137864
vn 0.252669 -0.0155577 -0.137864
vn 0.252669 -0.0155596 -0.137864
vn 0.252669 -0.0155588 -0.137864
vn 0.252668 -0.0155615 -0.137864
vn 0.252669 -0.0155604 -0.137864
vn 0.252669 -0.0155593 -0.137864
vn 0.252669 -0.0155604 -0.137864
vn 0.252669 -0.0155592 -0.137864
vn 0.252669 -0.01556 -0.137864
vn 0.252669 -0.0155608 -0.137864
vn 0.252669 -0.0155592 -0.137864
vn 0.252669 -0.0155585 -0.137864
vn 0.252669 -0.0155581 -0.137864
vn 0.252668 -0.0155615 -0.137865
vn 0.252669 -0.0155611 -0.137865
vn 0.252669 -0.0155595 -0.137864
vn 0.252669 -0.0155581 -0.137865
vn 0.252669 -0.0155601 -0.137864
vn 0.252669 -0.0155589 -0.137864
vn 0.252669 -0.015558 -0.137865
vn 0.252668 -0.0155618 -0.137864
vn 0.252669 -0.0155585 -0.137864
vn 0.252669 -0.0155592 -0.137864
vn 0.252669 -0.015558 -0.137864
vn 0.252669 -0.0155588 -0.137864
vn 0.252669 -0.0155604 -0.137864
vn 0.252668 -0.0155615 -0.137865
vn 0.252669 -0.0155601 -0.137864
vn 0.252669 -0.0155585 -0.137864
vn 0.252669 -0.0155573 -0.137864
vn 0.252669 -0.0155581 -0.137864
vn 0.252669 -0.0155588 -0.137864
vn 0.252669 -0.0155578 -0.137865
vn 0.252668 -0.0155617 -0.137864
vn 0.252669 -0.0155592 -0.137864
vn 0.252669 -0.0155608 -0.137864
vn 0.252669 -0.015558 -0.137865
vn 0.252668 -0.0155634 -0.137864
vn 0.252669 -0.0155596 -0.137864
vn 0.252669 -0.0155588 -0.137864
vn 0.252669 -0.0155589 -0.137864
vn 0.252669 -0.01556 -0.137864
vn 0.252669 -0.0155595 -0.137864
vn 0.252669 -0.0155604 -0.137864
vn 0.252669 -0.0155596 -0.137864
vn 0.252669 -0.0155584 -0.137865
vn 0.00597578 0.0903853 -0.0262792
vn 0.00562496 0.0904029 -0.0262292
vn 0.00604895 0.0903816 -0.0262898
vn 0.00605877 0.0903811 -0.0262912
vn 0.00605874 0.0903811 -0.0262912
vn -0.0560963 0.0229864 0.689432
vn -0.0560963 0.0229863 0.689432
vn -0.0560962 0.0229861 0.689432
vn -0.056096 0.0229855 0.689432
vn -0.0560962 0.022986 0.689432
vn -0.0560964 0.0229869 0.689432
vn -0.0560958 0.0229848 0.689432
vn -0.0560966 0.0229876 0.689432
vn -0.0560963 0.0229864 0.689432
vn -0.0560968 0.0229881 0.689432
vn -0.0560962 0.022986 0.689432
vn -0.0560965 0.0229873 0.689432
vn -0.0560962 0.0229861 0.689432
vn -0.0560959 0.0229848 0.689432
vn -0.0560962 0.0229861 0.689432
vn -0.0560965 0.0229875 0.689432
vn -0.0560963 0.0229865 0.689432
vn -0.0560963 0.0229862 0.689432
vn -0.0560962 0.0229861 0.689432
vn -0.0560964 0.0229873 0.689432
vn -0.0560962 0.0229854 0.689432
vn -0.0560963 0.0229866 0.689432
vn -0.0560963 0.0229863 0.689432
vn -0.0560961 0.0229846 0.689432
vn -0.0560964 0.0229875 0.689432
vn -0.0560963 0.0229862 0.689432
vn -0.0560964 0.0229874 0.689432
vn -0.0560964 0.0229873 0.689432
vn -0.0560963 0.0229862 0.689432
vn -0.0560963 0.0229864 0.689432
vn -0.0560962 0.0229848 0.689432
vn -0.0560963 0.0229861 0.689432
vn -0.0560963 0.0229876 0.689432
vn -0.0560963 0.022986 0.689432
vn -0.0560962 0.0229859 0.689432
vn -0.0560963 0.0229877 0.689432
vn -0.0560963 0.0229858 0.689432
vn -0.0560963 0.0229858 0.689432
vn -0.0560963 0.0229876 0.689432
vn -0.0560964 0.022986 0.689432
vn -0.0560963 0.0229871 0.689432
vn -0.0560963 0.0229849 0.689432
vn -0.0560963 0.022986 0.689432
vn -0.0560962 0.0229873 0.689432
vn -0.0560963 0.0229864 0.689432
vn -0.0560962 0.0229877 0.689432
vn -0.0560963 0.022986 0.689432
vn -0.0560963 0.0229862 0.689432
vn -0.0560964 0.0229857 0.689432
vn -0.0560964 0.0229856 0.689432
vn -0.0560963 0.0229861 0.689432
vn -0.0560963 0.0229862 0.689432
vn -0.0560963 0.0229865 0.689432
vn -0.0560963 0.0229867 0.689432
vn -0.0560962 0.0229874 0.689432
vn -0.0560964 0.022986 0.689432
vn -0.0560964 0.022986 0.689432
vn -0.0560963 0.0229863 0.689432
vn -0.0560961 0.0229874 0.689432
vn -0.0560965 0.0229853 0.689432
vn -0.0560964 0.0229861 0.689432
vn -0.0560961 0.0229872 0.689432
vn -0.0560963 0.0229861 0.689432
vn -0.056096 0.0229874 0.689432
vn -0.0560963 0.0229864 0.689432
vn -0.056096 0.0229875 0.689432
vn -0.0560964 0.0229862 0.689432
vn -0.0560964 0.0229859 0.689432
vn -0.0560961 0.0229868 0.689432
vn -0.0560964 0.022986 0.689432
vn -0.0560968 0.0229847 0.689432
vn -0.0560959 0.0229876 0.689432
vn -0.0560967 0.0229852 0.689432
vn -0.0560957 0.0229883 0.689432
vn -0.0560965 0.022986 0.689432
vn -0.0560966 0.0229855 0.689432
vn -0.056097 0.0229845 0.689432
vn -0.0560963 0.0229863 0.689432
vn -0.0560959 0.0229875 0.689432
vn -0.0560965 0.022986 0.689432
vn -0.0560964 0.0229861 0.689432
vn -0.0560966 0.0229858 0.689432
vn -0.0560965 0.022986 0.689432
vn -0.0560963 0.0229865 0.689432
vn -0.0560965 0.0229859 0.689432
vn -0.0560963 0.0229865 0.689432
vn -0.0560963 0.0229865 0.689432
vn -0.226234 -0.00649166 -0.172448
vn -0.22085 0.0234752 -0.177422
vn -0.0124104 -0.0914238 -0.0211354
vn -0.214073 -0.0283981 -0.156318
vn -0.0485265 -0.0881732 -0.0169597
vn -0.0032044 -0.0919055 -0.0207466
vn -0.00222019 -0.091954 -0.0208856
vn -0.00222016 -0.091954 -0.0208856
vn -0.0560963 0.0229864 0.689432
vn -0.0426819 0.0317952 0.685533
vn -0.0426816 0.0317946 0.685534
vn -0.0426822 0.0317962 0.685532
vn -0.0426837 0.0317987 0.68553
vn -0.0426831 0.031797 0.685532
vn -0.0426826 0.0317957 0.685533
vn -0.0426823 0.0317942 0.685534
vn -0.0426823 0.0317972 0.685531
vn -0.0426829 0.0318012 0.685528
vn -0.0426824 0.031801 0.685528
vn -0.0426817 0.0318126 0.685519
vn -0.248881 0.0122001 0.0147096
vn -0.248881 0.0122008 0.0147098
vn -0.248881 0.0122002 0.0147097
vn -0.248881 0.0121999 0.0147096
vn -0.248881 0.0122001 0.0147096
vn -0.248881 0.0121998 0.0147096
vn -0.248881 0.0121988 0.0147095
vn -0.248881 0.0122006 0.0147096
vn -0.248881 0.0122021 0.0147097
vn -0.248881 0.0122009 0.0147097
vn -0.248881 0.0121985 0.0147096
vn -0.248881 0.0121977 0.0147095
vn -0.248881 0.0121997 0.0147096
vn -0.248881 0.0122007 0.0147096
vn -0.248881 0.0121995 0.0147096
vn -0.248881 0.0121996 0.0147096
vn -0.248881 0.0122007 0.0147096
vn -0.248881 0.0122008 0.0147096
vn -0.248881 0.0121993 0.0147096
vn -0.248881 0.0121999 0.0147096
vn -0.248881 0.0121986 0.0147096
vn -0.248881 0.0121997 0.0147096
vn -0.248881 0.0122019 0.0147095
vn -0.248881 0.0121997 0.0147096
vn -0.248881 0.0122 0.0147096
vn -0.248881 0.0122 0.0147096
vn 0.968915 -0.0268132 0.243898
vn 0.00766206 0.417558 0.0503683
vn 0.00766148 0.417558 0.0503682
vn 0.00766183 0.417558 0.0503683
vn 0.00766183 0.417558 0.0503684
vn 0.00766176 0.417558 0.0503684
vn -0.979414 0.0141595 0.200671
vn 0.0227983 0.0284401 -0.998773
vn 0.0227983 0.0284401 -0.998773
vn 0.0227983 0.0284401 -0.998773
vn 0.0227983 0.0284401 -0.998773
vn 0.0227983 0.0284401 -0.998773
vn 0.0227983 0.0284401 -0.998773
vn -0.00938956 -0.418918 0.0260857
vn -0.00938966 -0.418918 0.0260857
vn -0.00938957 -0.418918 0.0260857
vn -0.00938956 -0.418918 0.0260857
vn -0.00938956 -0.418918 0.0260857
vn -0.0128435 0.0102965 -0.999617
vn -0.0128453 0.010295 -0.999617
vn -0.0128417 0.0102981 -0.999617
vn 0.999771 -0.0070531 -0.0132557
vn 0.999771 -0.00705307 -0.0132557
vn 0.999771 -0.00705314 -0.0132557
vn 0.999771 -0.00705315 -0.0132557
vn 0.999771 -0.00705305 -0.0132557
vn 0.999771 -0.00705304 -0.0132557

# Mesh 'Box001_0' with 12 faces
g Box001_0
usemtl %%%DEFAULT
f  1/1/1 2/2/2 3/3/1
f  3/3/1 4/4/3 1/1/1
f  5/4/4 6/1/5 7/2/4
f  7/2/4 8/3/6 5/4/4
f  1/4/7 4/1/8 6/2/7
f  6/2/7 5/3/9 1/4/7
f  4/4/10 3/1/11 7/2/10
f  7/2/10 6/3/12 4/4/10
f  3/4/13 2/1/14 8/2/13
f  8/2/13 7/3/15 3/4/13
f  2/4/16 1/1/17 5/2/16
f  5/2/16 8/3/18 2/4/16

# Mesh 'Pyramid002_1' with 191 faces
g Pyramid002_1
usemtl %%%DEFAULT
f  9/5/19 10/4/20 11/6/21
f  9/5/19 12/7/22 13/8/23
f  9/5/19 14/9/24 15/10/25
f  9/5/19 16/11/26 17/12/27
f  9/5/19 18/13/28 19/14/29
f  9/5/19 20/15/30 21/16/31
f  9/5/19 22/17/30 23/18/32
f  9/5/19 24/19/33 25/20/34
f  9/5/19 26/21/35 27/22/36
f  9/5/19 27/22/36 28/23/37
f  9/5/19 29/24/38 30/25/39
f  9/5/19 31/26/40 32/27/41
f  9/5/19 33/28/42 34/29/43
f  9/5/19 35/30/44 36/31/45
f  9/5/19 37/32/46 38/33/47
f  9/5/19 11/6/21 12/7/22
f  9/5/19 13/8/23 14/9/24
f  9/5/19 39/34/48 16/11/26
f  9/5/19 40/35/49 41/36/50
f  9/5/19 42/37/51 43/38/52
f  9/5/19 43/38/52 18/13/28
f  9/5/19 44/39/53 22/17/30
f  9/5/19 25/20/34 45/40/54
f  9/5/19 46/41/55 26/21/35
f  9/5/19 28/23/37 29/24/38
f  9/5/19 47/42/56 31/26/40
f  9/5/19 32/27/41 48/43/57
f  9/5/19 34/29/43 49/44/58
f  9/5/19 50/45/59 51/46/60
f  9/5/19 52/47/61 53/48/62
f  9/5/19 54/49/63 55/50/64
f  9/5/19 15/10/25 56/51/34
f  9/5/19 56/51/34 57/52/65
f  9/5/19 17/12/27 40/35/49
f  9/5/19 58/53/66 59/54/67
f  9/5/19 59/54/67 60/55/68
f  9/5/19 60/55/68 42/37/51
f  9/5/19 19/14/29 20/15/30
f  9/5/19 61/56/69 62/57/70
f  9/5/19 45/40/54 46/41/55
f  9/5/19 30/25/39 63/58/71
f  9/5/19 63/58/71 64/59/34
f  9/5/19 64/59/34 65/60/34
f  9/5/19 65/60/34 47/42/56
f  9/5/19 48/43/57 33/28/42
f  9/5/19 51/46/60 52/47/61
f  9/5/19 53/48/62 66/61/72
f  9/5/19 66/61/72 37/32/46
f  9/5/19 38/33/47 67/62/73
f  9/5/19 67/62/73 54/49/63
f  9/5/19 55/50/64 68/63/74
f  9/5/19 57/52/65 69/64/75
f  9/5/19 21/16/31 61/56/69
f  9/5/19 23/18/32 24/19/33
f  9/5/19 70/65/76 35/30/44
f  9/5/19 36/31/45 71/66/77
f  9/5/19 69/64/75 39/34/48
f  9/5/19 41/36/50 72/67/78
f  9/5/19 73/68/67 58/53/66
f  9/5/19 49/44/58 70/65/76
f  9/5/19 72/67/78 73/68/67
f  9/5/19 62/57/70 44/39/53
f  9/5/19 71/66/77 50/45/59
f  9/5/79 74/69/80 75/70/81
f  75/70/81 76/71/82 10/72/83
f  9/5/79 75/70/81 10/72/83
f  10/3/84 77/73/85 11/74/86
f  13/75/87 12/76/88 77/73/85
f  11/74/86 77/73/85 12/76/88
f  77/73/85 78/77/89 13/75/87
f  13/75/87 78/77/89 14/78/90
f  14/78/90 78/77/89 15/79/91
f  78/77/89 79/80/92 56/81/93
f  56/81/93 15/79/91 78/77/89
f  56/81/93 79/80/92 57/82/94
f  57/82/94 79/80/92 69/83/95
f  79/80/92 80/84/96 39/85/97
f  39/85/97 69/83/95 79/80/92
f  39/85/97 80/84/96 16/86/98
f  16/86/98 80/84/96 17/87/99
f  80/84/96 81/88/100 40/89/101
f  40/89/101 17/87/99 80/84/96
f  40/89/101 81/88/100 41/90/102
f  41/90/102 81/88/100 72/91/103
f  81/88/100 82/92/104 73/93/105
f  73/93/105 72/91/103 81/88/100
f  73/93/105 82/92/104 58/94/106
f  58/94/106 82/92/104 59/95/107
f  82/92/104 83/96/108 60/97/109
f  60/97/109 59/95/107 82/92/104
f  60/97/109 83/96/108 42/98/110
f  42/98/110 83/96/108 43/99/111
f  18/100/112 43/99/111 83/96/108
f  83/96/108 84/101/113 18/100/112
f  18/100/112 84/101/113 19/102/114
f  21/103/115 20/104/116 84/101/113
f  19/102/114 84/101/113 20/104/116
f  84/101/113 85/105/117 21/103/115
f  21/103/115 85/105/117 61/106/118
f  61/106/118 85/105/117 62/107/119
f  85/105/117 86/108/120 44/109/121
f  44/109/121 62/107/119 85/105/117
f  44/109/121 86/108/120 22/110/122
f  22/110/122 86/108/120 23/111/123
f  86/108/120 87/112/124 24/113/125
f  24/113/125 23/111/123 86/108/120
f  24/113/125 87/112/124 25/114/126
f  25/114/126 87/112/124 45/115/127
f  87/112/124 88/116/128 46/117/129
f  46/117/129 45/115/127 87/112/124
f  46/117/129 88/116/128 26/118/130
f  26/118/130 88/116/128 27/119/131
f  28/120/132 27/119/131 88/116/128
f  88/116/128 89/121/133 28/120/132
f  28/120/132 89/121/133 29/122/134
f  29/122/134 89/121/133 30/123/135
f  89/121/133 90/124/136 63/125/137
f  63/125/137 30/123/135 89/121/133
f  63/125/137 90/124/136 64/126/138
f  64/126/138 90/124/136 65/127/139
f  47/128/140 65/127/139 90/124/136
f  90/124/136 91/129/141 47/128/140
f  47/128/140 91/129/141 31/130/142
f  48/131/143 32/132/144 91/129/141
f  31/130/142 91/129/141 32/132/144
f  91/129/141 92/133/145 48/131/143
f  48/131/143 92/133/145 33/134/146
f  33/134/146 92/133/145 34/135/147
f  92/133/145 93/136/148 49/137/149
f  49/137/149 34/135/147 92/133/145
f  49/137/149 93/136/148 70/138/150
f  70/138/150 93/136/148 35/139/151
f  93/136/148 94/140/152 36/141/153
f  36/141/153 35/139/151 93/136/148
f  36/141/153 94/140/152 71/142/154
f  71/142/154 94/140/152 50/143/155
f  94/140/152 95/144/156 51/145/157
f  51/145/157 50/143/155 94/140/152
f  51/145/157 95/144/156 52/146/158
f  66/147/159 53/148/160 95/144/156
f  52/146/158 95/144/156 53/148/160
f  95/144/156 96/149/161 66/147/159
f  66/147/159 96/149/161 37/150/162
f  67/151/163 38/152/164 96/149/161
f  37/150/162 96/149/161 38/152/164
f  96/149/161 97/153/165 67/151/163
f  67/151/163 97/153/165 54/154/166
f  68/155/167 55/156/168 97/153/165
f  54/154/166 97/153/165 55/156/168
f  97/153/165 98/157/169 68/155/167
f  68/155/167 98/157/169 99/158/170
f  100/159/171 74/160/172 9/5/173
f  101/161/174 100/159/171 9/5/173
f  102/162/175 101/161/174 9/5/173
f  103/163/176 102/162/175 9/5/173
f  103/163/176 9/5/173 68/164/177
f  103/163/176 68/164/177 99/165/178
f  77/73/85 10/3/84 76/166/179
f  104/167/180 103/168/181 75/169/182
f  105/170/183 104/167/180 75/169/182
f  106/171/184 105/170/183 75/169/182
f  107/172/185 106/171/184 75/169/182
f  108/173/186 107/172/185 75/169/182
f  102/174/187 108/173/186 75/169/182
f  101/175/188 102/174/187 75/169/182
f  100/176/189 101/175/188 75/169/182
f  100/176/189 75/169/182 74/177/190
f  75/178/191 103/179/192 99/180/193
f  75/178/191 99/180/193 98/181/194
f  75/178/191 98/181/194 97/182/195
f  75/178/191 97/182/195 96/183/196
f  75/178/191 96/183/196 95/184/197
f  75/178/191 95/184/197 94/185/198
f  75/178/191 94/185/198 93/186/199
f  75/178/191 93/186/199 92/187/200
f  75/178/191 92/187/200 91/188/201
f  75/178/191 91/188/201 90/189/202
f  75/178/191 90/189/202 89/190/203
f  75/178/191 89/190/203 88/191/204
f  75/178/191 88/191/204 87/192/205
f  75/178/191 87/192/205 86/193/206
f  75/178/191 86/193/206 85/194/207
f  75/178/191 85/194/207 84/195/208
f  75/178/191 84/195/208 83/196/209
f  75/178/191 83/196/209 82/197/210
f  75/178/191 82/197/210 81/198/211
f  75/178/191 81/198/211 80/199/212
f  75/178/191 80/199/212 79/200/213
f  75/178/191 79/200/213 78/201/214
f  75/178/191 78/201/214 77/202/215
f  76/203/216 75/178/191 77/202/215

# Mesh 'Pyramid001_2' with 18 faces
g Pyramid001_2
usemtl %%%DEFAULT
f  109/5/217 110/204/217 111/205/217
f  109/5/218 111/206/219 112/207/220
f  109/5/218 112/207/220 113/1/221
f  112/207/220 114/208/222 113/1/221
f  109/5/223 113/209/223 115/210/223
f  115/3/224 116/211/225 117/212/226
f  116/211/225 115/3/224 113/4/227
f  113/4/227 118/213/228 116/211/225
f  118/213/228 113/4/227 114/214/229
f  119/215/230 110/216/231 109/5/232
f  119/215/230 109/5/232 115/4/233
f  119/215/230 115/4/233 117/217/234
f  110/218/235 119/219/236 112/220/235
f  112/220/235 111/221/237 110/218/235
f  112/222/238 119/223/239 117/224/240
f  112/222/238 117/224/240 116/225/241
f  112/222/238 116/225/241 118/226/242
f  114/227/243 112/222/238 118/226/242

