# Blender v2.79 (sub 0) OBJ File: 'fire.blend'
# www.blender.org
mtllib fire.mtl
o <STL_BINARY>
v 0.014166 0.124173 0.037737
v -0.002091 0.237090 0.001444
v -0.014649 0.166770 -0.020498
v -0.039872 0.128314 0.009365
v -0.028594 0.139975 0.024723
v -0.015327 0.174709 0.019483
v -0.021722 0.181204 0.006838
v 0.008485 0.128534 -0.035510
v -0.007125 0.138869 -0.033363
v -0.016028 0.125143 -0.035489
v 0.001705 0.183501 -0.018072
v -0.002253 0.135809 0.037557
v -0.037883 0.133192 -0.009208
v -0.028771 0.132404 -0.024900
v 0.026323 0.134844 -0.022113
v 0.034901 0.130390 -0.006924
v 0.031561 0.136633 0.014422
v 0.024099 0.164412 0.001273
v 0.013063 0.183513 0.014290
v 0.018341 0.143709 0.027766
v 0.026327 0.124772 0.028854
v -0.001937 0.017511 -0.006928
v 0.004509 0.018900 -0.003270
v 0.004428 0.019389 0.006390
v -0.003934 0.018242 0.009554
v -0.007738 0.021402 0.005549
v -0.008504 0.020535 -0.002905
v 0.000744 0.023916 0.000374
v 0.000176 0.004117 -0.011915
v -0.000874 0.005241 0.015937
v 0.006446 0.003445 0.007716
v 0.010780 0.004068 -0.000153
v -0.014528 0.004678 0.007949
v -0.013395 0.004164 -0.004811
v 0.006879 0.005127 -0.002574
v -0.003668 0.004892 0.010996
v -0.011883 0.004808 0.001470
v -0.004390 0.004784 -0.007979
v 0.003936 0.009316 -0.013408
v 0.002294 0.021404 0.017595
v -0.014008 0.024036 -0.007150
v -0.018297 0.020161 0.006137
v -0.011113 0.023947 0.013202
v 0.003617 0.020747 -0.014199
v -0.010990 0.012514 0.016215
v -0.018970 0.014158 -0.003292
v -0.013302 0.009134 -0.010161
v -0.007192 0.015210 -0.015338
v 0.013669 0.012227 -0.005793
v 0.014674 0.018548 0.003027
v 0.011203 0.012204 0.012925
v -0.005488 0.029027 -0.008650
v -0.012531 0.028857 -0.001330
v -0.010311 0.029087 0.007972
v -0.001108 0.029167 0.012159
v 0.008390 0.029324 0.004584
v 0.005632 0.028927 -0.006654
v -0.002187 0.045705 -0.009992
v -0.012252 0.045648 -0.004333
v -0.012251 0.045679 0.006615
v -0.004328 0.045828 0.012839
v 0.003629 0.045661 0.011401
v 0.009418 0.045628 0.001961
v 0.005676 0.045638 -0.006682
v -0.013977 0.046735 -0.016757
v -0.024234 0.046991 -0.001823
v -0.021100 0.046928 0.012421
v -0.013228 0.048076 0.021166
v 0.006326 0.046781 0.021914
v 0.019082 0.047060 0.007993
v 0.017412 0.046905 -0.009476
v 0.001746 0.047250 -0.020503
v 0.000154 0.053391 0.021828
v 0.008905 0.058198 0.014621
v -0.015838 0.052827 -0.014650
v 0.014246 0.053612 0.014493
v -0.009164 0.058390 0.016665
v -0.018042 0.058352 0.007770
v -0.018856 0.058228 -0.004145
v -0.003742 0.058271 -0.015657
v 0.011600 0.054439 -0.013762
v 0.009987 0.058410 -0.010049
v 0.014998 0.058364 0.000825
v -0.020241 0.120988 0.037824
v -0.032615 0.120078 0.028705
v -0.020014 0.105517 -0.035377
v 0.032831 0.085664 0.012407
v -0.029168 0.086352 0.026149
v -0.010858 0.087136 -0.034566
v 0.008622 0.064701 -0.019733
v -0.005985 0.061806 0.022310
v -0.030613 0.069054 0.004781
v -0.021931 0.062043 -0.004652
v -0.001868 0.094515 -0.037610
v -0.011296 0.065722 -0.021193
v -0.039107 0.099889 0.017429
v -0.036394 0.084730 0.012586
v -0.042973 0.111527 0.001876
v -0.021261 0.069621 0.021148
v 0.017975 0.069465 0.021043
v 0.025192 0.089650 0.027619
v 0.021888 0.102603 0.034581
v 0.038692 0.118059 -0.000601
v 0.036105 0.113369 0.016898
v 0.020188 0.063427 0.002566
v 0.005542 0.085296 -0.034087
v 0.013730 0.101011 -0.035955
v 0.021013 0.122058 -0.031396
v -0.003690 0.119423 -0.038991
v 0.020149 0.082297 0.035253
v 0.007309 0.077824 0.043563
v -0.008644 0.076853 0.044193
v 0.014892 0.071701 0.032341
v -0.024342 0.082336 0.035711
v -0.014304 0.069107 0.033449
v 0.001342 0.064917 0.032403
v -0.002091 0.160806 0.075566
v -0.041138 0.081711 0.005947
v -0.036004 0.077011 -0.025131
v -0.023014 0.078895 -0.033404
v -0.026676 0.065884 -0.019346
v -0.043247 0.076952 -0.010831
v -0.032960 0.066410 -0.009041
v -0.066282 0.160806 -0.035617
v 0.020908 0.081033 -0.033838
v 0.012670 0.077410 -0.032532
v 0.019626 0.067989 -0.023900
v 0.040162 0.081451 -0.001702
v 0.031264 0.069407 -0.001179
v 0.035993 0.076357 -0.020053
v 0.025379 0.065243 -0.014294
v 0.062101 0.160806 -0.035617
v -0.002091 0.196953 -0.028238
v 0.023615 0.196953 0.016285
v -0.027796 0.196953 0.016285
vn -0.7574 0.0918 0.6465
vn -0.6836 0.2337 0.6915
vn -0.9609 0.1963 0.1955
vn -0.4886 0.3337 0.8061
vn -0.5126 0.1694 0.8418
vn -0.9181 0.3414 0.2015
vn -0.3689 0.9087 0.1954
vn -0.9286 0.3094 -0.2049
vn -0.0163 0.0965 -0.9952
vn -0.1967 0.3095 -0.9303
vn 0.2964 0.2201 -0.9294
vn -0.3832 0.1874 -0.9045
vn -0.5060 0.3350 -0.7948
vn -0.6447 0.2909 -0.7069
vn 0.2061 0.3430 -0.9164
vn -0.0206 0.3407 -0.9400
vn -0.0478 0.8759 0.4801
vn 0.6881 0.6174 0.3813
vn 0.1783 0.7971 -0.5770
vn 0.8296 0.3464 -0.4380
vn 0.8176 0.2525 -0.5174
vn 0.9115 0.2460 0.3296
vn 0.9844 0.1145 0.1335
vn 0.7117 0.3468 0.6109
vn 0.7185 0.1897 0.6691
vn 0.5221 0.3385 0.7828
vn 0.7843 0.3961 0.4776
vn 0.7276 0.2308 0.6461
vn 0.4188 0.3405 0.8419
vn -0.6772 -0.5030 -0.5371
vn -0.2592 -0.9609 0.0970
vn -0.7437 -0.4215 0.5189
vn -0.0417 -0.3567 0.9333
vn 0.6723 -0.5788 0.4614
vn 0.1640 -0.3974 -0.9029
vn 0.6000 -0.6649 -0.4449
vn 0.0839 -0.8937 -0.4408
vn 0.5407 -0.8408 0.0246
vn 0.1974 -0.7477 0.6341
vn -0.6554 -0.6540 0.3778
vn 0.0191 -0.9997 0.0182
vn 0.0911 -0.8234 -0.5601
vn 0.5737 -0.8147 -0.0843
vn 0.0540 -0.6769 0.7341
vn -0.5961 -0.7455 0.2983
vn -0.4718 -0.8527 -0.2243
vn -0.7401 0.3048 0.5995
vn -0.2995 0.7030 0.6451
vn 0.1991 0.2641 0.9437
vn -0.9259 0.2900 -0.2422
vn -0.7517 0.6389 0.1637
vn -0.2873 0.2954 -0.9112
vn -0.7134 0.4411 -0.5445
vn 0.3549 0.3068 -0.8831
vn 0.6881 0.2776 -0.6705
vn 0.2639 0.3067 0.9145
vn 0.9199 0.2567 0.2965
vn -0.5008 -0.1425 0.8538
vn -0.5512 0.3773 0.7442
vn -0.1787 0.5106 0.8410
vn -0.9442 0.1682 0.2832
vn -0.7146 0.5506 0.4315
vn -0.9621 -0.0595 -0.2661
vn -0.8788 0.4524 -0.1517
vn -0.6265 -0.3341 -0.7042
vn -0.3101 0.0230 -0.9504
vn 0.4161 -0.3211 -0.8507
vn 0.8971 -0.1477 -0.4165
vn 0.9769 0.1948 0.0879
vn 0.7623 -0.1667 0.6254
vn -0.0194 -0.7745 -0.6323
vn -0.5283 -0.7946 -0.2992
vn -0.5670 -0.7739 0.2823
vn -0.1712 -0.7545 0.6336
vn 0.3540 -0.7722 0.5276
vn 0.6261 -0.7787 0.0413
vn 0.4552 -0.7506 -0.4790
vn 0.7928 -0.4632 -0.3962
vn 0.8593 -0.4630 0.2174
vn 0.3255 -0.5067 0.7983
vn -0.4519 -0.3526 0.8195
vn -0.7711 -0.4671 0.4327
vn -0.8862 -0.4493 -0.1130
vn -0.4129 -0.5455 -0.7294
vn 0.1386 -0.4272 -0.8935
vn -0.5984 0.3730 -0.7091
vn 0.5862 0.4286 -0.6875
vn -0.8899 -0.2124 0.4036
vn -0.0880 0.5124 -0.8542
vn 0.9828 -0.1697 -0.0732
vn 0.7312 0.3628 0.5776
vn 0.0766 0.4227 0.9030
vn 0.5879 -0.0645 0.8064
vn -0.4390 -0.1713 0.8820
vn -0.9175 -0.1506 -0.3681
vn 0.7698 0.0352 -0.6373
vn -0.4239 0.0809 -0.9021
vn -0.6738 -0.6664 0.3192
vn -0.5592 -0.7991 -0.2206
vn -0.9120 -0.1328 0.3882
vn -0.9860 0.0512 0.1587
vn -0.8531 -0.3478 0.3888
vn -0.1079 -0.8766 0.4689
vn 0.6596 -0.6574 0.3643
vn 0.6201 -0.7681 0.1595
vn 0.8295 -0.3105 0.4642
vn 0.1192 -0.7711 -0.6255
vn -0.0755 -0.7242 -0.6855
vn -0.0869 -0.7171 -0.6915
vn -0.6330 -0.6690 0.3896
vn -0.0131 -0.3476 -0.9375
vn -0.8293 -0.2908 0.4771
vn -0.7481 -0.3130 0.5851
vn -0.7463 -0.4961 0.4437
vn 0.8478 -0.2183 0.4832
vn -0.0049 -0.1839 -0.9829
vn -0.0285 -0.3101 -0.9503
vn 0.9286 0.0110 0.3710
vn -0.0747 -0.0452 -0.9962
vn 0.7669 -0.0783 0.6370
vn 0.2549 -0.1433 -0.9563
vn 0.1420 -0.8833 0.4468
vn 0.5879 -0.6635 0.4627
vn 0.7880 -0.3108 0.5315
vn -0.7729 -0.3240 0.5455
vn -0.4502 -0.7453 0.4918
vn -0.2403 -0.5113 0.8251
vn 0.3326 -0.4811 0.8111
vn -0.0045 0.7928 0.6094
vn -0.9448 0.2950 0.1423
vn -0.9419 0.1398 0.3055
vn -0.8194 -0.3365 0.4640
vn -0.5794 -0.8145 -0.0305
vn -0.3079 -0.8430 -0.4410
vn -0.1247 -0.4293 -0.8945
vn -0.6123 -0.5124 -0.6021
vn -0.8593 -0.5071 -0.0674
vn -0.7858 0.0943 0.6112
vn 0.0327 0.7080 0.7055
vn -0.5297 0.7910 -0.3061
vn 0.6230 0.6715 -0.4012
vn -0.8461 0.0053 0.5330
vn -0.1494 -0.5136 -0.8449
vn 0.2260 -0.7636 -0.6049
vn 0.4056 -0.8892 -0.2118
vn 0.2573 -0.3404 -0.9044
vn 0.6611 -0.6982 0.2749
vn 0.8985 -0.3627 0.2474
vn 0.7426 -0.5275 -0.4127
vn 0.5334 0.7891 -0.3047
vn 0.5761 0.5900 0.5657
vn 0.1567 0.1283 -0.9793
vn 0.0150 0.9739 -0.2267
vn -0.8310 0.2141 -0.5134
vn -0.2014 0.1034 -0.9740
vn -0.7895 0.6025 0.1165
vn 0.1917 0.9751 0.1114
vn 0.6308 0.1033 0.7690
vn -0.0255 0.5070 -0.8616
vn -0.1980 0.9739 0.1110
vn 0.3239 0.3101 0.8938
usemtl fire
s 1
f 85//1 5//2 4//3
f 6//4 5//2 84//5
f 5//2 85//1 84//5
f 7//6 6//4 2//7
f 4//3 7//6 13//8
f 109//9 9//10 8//11
f 9//10 109//9 10//12
f 10//12 3//13 9//10
f 14//14 3//13 10//12
f 11//15 3//13 2//7
f 108//16 8//11 11//15
f 12//17 2//7 84//5
f 14//14 13//8 2//7
f 16//18 15//19 2//20
f 18//21 17//22 103//23
f 18//21 2//7 19//24
f 21//25 20//26 1//27
f 21//25 17//22 20//26
f 2//20 103//28 16//18
f 18//21 103//23 2//7
f 108//16 2//20 15//19
f 108//16 11//15 2//7
f 3//13 14//14 2//7
f 13//8 7//6 2//7
f 6//4 84//5 2//7
f 2//7 12//17 1//27
f 20//26 19//29 1//27
f 1//27 19//24 2//7
f 24//30 28//31 23//32
f 23//32 28//31 22//33
f 22//33 28//31 27//34
f 25//35 26//36 24//30
f 24//30 26//36 28//31
f 27//34 28//31 26//36
f 25//35 36//37 26//36
f 26//36 36//37 37//38
f 26//36 37//38 27//34
f 27//34 37//38 38//39
f 27//34 38//39 22//33
f 22//33 38//39 35//40
f 22//33 35//40 23//32
f 23//32 35//40 24//30
f 24//30 35//40 31//41
f 24//30 31//41 36//37
f 24//30 36//37 25//35
f 38//39 29//42 35//40
f 29//42 32//43 35//40
f 32//43 31//41 35//40
f 30//44 36//37 31//41
f 30//44 33//45 36//37
f 33//45 37//38 36//37
f 33//45 34//46 37//38
f 37//38 34//46 38//39
f 29//42 38//39 34//46
f 54//47 43//48 55//49
f 53//50 42//51 54//47
f 52//52 41//53 53//50
f 44//54 52//52 57//55
f 55//49 40//56 56//57
f 45//58 33//45 30//44
f 45//58 30//44 40//56
f 45//58 40//56 43//59
f 43//59 40//56 55//60
f 43//59 42//61 45//58
f 45//58 42//61 33//45
f 54//62 42//61 43//59
f 42//61 46//63 33//45
f 33//45 46//63 34//46
f 53//64 41//53 42//61
f 42//61 41//53 46//63
f 46//63 47//65 34//46
f 41//53 48//66 46//63
f 46//63 48//66 47//65
f 47//65 29//42 34//46
f 41//53 52//52 48//66
f 47//65 48//66 29//42
f 52//52 44//54 48//66
f 48//66 39//67 29//42
f 48//66 44//54 39//67
f 44//54 49//68 39//67
f 39//67 49//68 29//42
f 57//55 49//68 44//54
f 49//68 32//43 29//42
f 57//55 50//69 49//68
f 57//55 56//57 50//69
f 50//69 51//70 49//68
f 49//68 51//70 32//43
f 32//43 51//70 31//41
f 56//57 51//70 50//69
f 56//57 40//56 51//70
f 51//70 30//44 31//41
f 40//56 30//44 51//70
f 58//71 52//52 59//72
f 59//72 52//52 53//50
f 59//72 53//50 60//73
f 60//73 53//50 54//47
f 60//73 54//47 61//74
f 61//74 54//47 55//49
f 61//74 55//49 62//75
f 62//75 55//49 56//57
f 62//75 56//57 63//76
f 63//76 56//57 57//55
f 63//76 57//55 64//77
f 64//77 57//55 58//71
f 58//71 57//55 52//52
f 64//77 71//78 63//76
f 63//76 71//78 70//79
f 63//76 70//79 62//75
f 62//75 70//79 69//80
f 62//75 69//80 61//74
f 61//74 69//80 68//81
f 61//74 68//81 67//82
f 61//74 67//82 60//73
f 60//73 67//82 59//72
f 59//72 67//82 66//83
f 59//72 66//83 65//84
f 59//72 65//84 58//71
f 58//71 65//84 72//85
f 58//71 72//85 64//77
f 64//77 72//85 71//78
f 72//85 65//84 75//86
f 71//78 72//85 81//87
f 67//82 68//81 78//88
f 66//83 67//82 78//88
f 72//85 75//86 80//89
f 83//90 76//91 70//79
f 70//79 76//91 69//80
f 76//91 73//92 69//80
f 76//91 74//93 73//92
f 69//80 73//92 68//81
f 74//93 77//94 73//92
f 68//81 73//92 77//94
f 77//94 78//88 68//81
f 78//88 79//95 66//83
f 79//95 75//86 66//83
f 75//86 65//84 66//83
f 75//86 79//95 80//89
f 80//89 81//87 72//85
f 81//87 80//89 82//96
f 71//78 81//87 83//90
f 83//90 81//87 82//96
f 70//79 71//78 83//90
f 83//90 74//93 76//91
f 86//97 14//14 10//12
f 79//95 92//98 93//99
f 96//100 98//101 97//102
f 91//103 77//94 74//93
f 100//104 105//105 87//106
f 105//105 82//96 90//107
f 105//105 83//90 82//96
f 82//96 80//108 90//107
f 95//109 80//108 79//95
f 79//95 93//99 95//109
f 77//94 91//103 99//110
f 77//94 99//110 78//88
f 91//103 74//93 100//104
f 78//88 92//98 79//95
f 92//98 78//88 99//110
f 106//111 90//107 95//109
f 95//109 90//107 80//108
f 96//100 97//102 88//112
f 97//113 92//98 99//114
f 101//115 100//104 87//106
f 94//116 106//111 89//117
f 89//117 106//111 95//109
f 88//112 97//102 99//110
f 100//104 74//93 105//105
f 105//105 74//93 83//90
f 85//1 88//112 84//5
f 104//118 87//106 103//23
f 94//116 89//117 86//119
f 96//100 88//112 85//1
f 87//106 104//118 101//115
f 94//116 86//119 109//9
f 109//9 86//97 10//12
f 102//120 101//115 104//118
f 104//118 103//23 17//22
f 8//11 107//121 109//9
f 94//116 109//9 107//121
f 96//100 4//3 98//101
f 4//3 96//100 85//1
f 17//22 21//25 104//118
f 1//27 102//120 21//25
f 21//25 102//120 104//118
f 107//121 8//11 108//16
f 94//116 107//121 106//111
f 98//101 4//3 13//8
f 116//122 100//104 113//123
f 100//104 101//115 110//124
f 113//123 100//104 110//124
f 116//122 91//103 100//104
f 114//125 99//110 115//126
f 114//125 115//126 112//127
f 115//126 91//103 116//122
f 111//128 116//122 113//123
f 113//123 110//124 111//128
f 99//110 114//125 88//112
f 116//122 112//127 115//126
f 115//126 99//110 91//103
f 112//127 116//122 111//128
f 114//125 112//127 117//129
f 12//17 84//130 117//129
f 117//129 84//130 88//131
f 12//17 117//129 1//27
f 102//120 1//27 117//129
f 117//129 112//127 111//128
f 110//124 117//129 111//128
f 110//124 101//115 117//129
f 101//115 102//120 117//129
f 88//112 114//125 117//129
f 118//132 92//98 97//113
f 123//133 93//99 92//98
f 95//109 93//99 121//134
f 120//135 121//134 119//136
f 121//134 120//135 95//109
f 92//98 122//137 123//133
f 120//135 89//117 95//109
f 122//137 119//136 121//134
f 123//133 122//137 121//134
f 118//132 122//137 92//98
f 123//133 121//134 93//99
f 98//138 13//139 124//140
f 124//140 86//119 89//117
f 14//141 86//119 124//140
f 13//139 14//141 124//140
f 124//140 119//136 122//137
f 124//140 122//137 118//132
f 97//113 124//140 118//132
f 97//142 98//138 124//140
f 89//117 120//135 124//140
f 120//135 119//136 124//140
f 90//107 126//143 127//144
f 126//143 90//107 106//111
f 131//145 90//107 127//144
f 106//111 125//146 126//143
f 87//106 105//105 129//147
f 128//148 129//147 130//149
f 129//147 131//145 130//149
f 129//147 105//105 131//145
f 130//149 127//144 125//146
f 129//147 128//148 87//106
f 131//145 127//144 130//149
f 126//143 125//146 127//144
f 131//145 105//105 90//107
f 15//19 16//18 132//150
f 132//150 103//28 87//106
f 16//18 103//28 132//150
f 132//150 108//16 15//19
f 107//121 108//16 132//150
f 130//149 125//146 132//150
f 125//146 106//111 132//150
f 106//111 107//121 132//150
f 87//106 128//148 132//150
f 128//148 130//149 132//150
f 11//151 8//152 133//153
f 3//154 11//151 133//153
f 133//153 9//155 3//154
f 8//152 9//155 133//153
f 18//21 19//156 134//157
f 17//22 18//21 134//157
f 20//158 17//22 134//157
f 19//156 20//158 134//157
f 7//159 4//3 135//160
f 6//161 7//159 135//160
f 5//2 6//161 135//160
f 4//3 5//2 135//160
